<svg width="15" height="15" viewBox="0 0 15 15" fill="none" xmlns="http://www.w3.org/2000/svg">
<path fill-rule="evenodd" clip-rule="evenodd" d="M6.74877 5.80154e-09H5.24875C4.63937 -3.78825e-05 4.04442 0.185504 3.54308 0.531933C3.04175 0.878363 2.6578 1.36925 2.44233 1.93927C2.22686 2.5093 2.19009 3.13142 2.33692 3.72285C2.48374 4.31429 2.80719 4.84699 3.26423 5.25006C2.94467 5.53129 2.68878 5.87747 2.51366 6.26548C2.33854 6.65348 2.24822 7.07439 2.24872 7.50008C2.24822 7.92578 2.33854 8.34668 2.51366 8.73469C2.68878 9.12269 2.94467 9.46887 3.26423 9.75011C2.88829 10.0817 2.60143 10.5022 2.42988 10.9733C2.25832 11.4443 2.20753 11.9508 2.28214 12.4465C2.35676 12.9422 2.5544 13.4113 2.85701 13.811C3.15963 14.2106 3.55756 14.5281 4.01447 14.7343C4.47137 14.9406 4.97267 15.029 5.47257 14.9916C5.97247 14.9542 6.45502 14.7922 6.87615 14.5202C7.29728 14.2483 7.64355 13.8752 7.88334 13.435C8.12312 12.9947 8.24876 12.5014 8.24879 12.0001V10.0989C8.89323 10.4718 9.65336 10.5919 10.3814 10.4355C11.1094 10.2792 11.7532 9.85776 12.1878 9.2531C12.6223 8.64844 12.8164 7.9038 12.7325 7.16395C12.6485 6.4241 12.2923 5.74192 11.7333 5.25006C12.1904 4.84699 12.5138 4.31429 12.6606 3.72285C12.8075 3.13142 12.7707 2.5093 12.5552 1.93927C12.3398 1.36925 11.9558 0.878363 11.4545 0.531933C10.9531 0.185504 10.3582 -3.78825e-05 9.7488 5.80154e-09H6.74877ZM8.24879 1.50002V4.50005H9.7488C10.1466 4.50005 10.5282 4.34201 10.8095 4.0607C11.0908 3.7794 11.2488 3.39786 11.2488 3.00003C11.2488 2.6022 11.0908 2.22067 10.8095 1.93936C10.5282 1.65805 10.1466 1.50002 9.7488 1.50002H8.24879ZM6.74877 6.00007H5.24875C4.85093 6.00007 4.46939 6.1581 4.18808 6.43941C3.90678 6.72072 3.74874 7.10225 3.74874 7.50008C3.74874 7.89791 3.90678 8.27945 4.18808 8.56075C4.46939 8.84206 4.85093 9.0001 5.24875 9.0001H6.74877V6.00007ZM5.24875 4.50005H6.74877V1.50002H5.24875C4.85093 1.50002 4.46939 1.65805 4.18808 1.93936C3.90678 2.22067 3.74874 2.6022 3.74874 3.00003C3.74874 3.39786 3.90678 3.7794 4.18808 4.0607C4.46939 4.34201 4.85093 4.50005 5.24875 4.50005ZM8.24879 7.50008C8.24879 7.89791 8.40683 8.27945 8.68813 8.56075C8.96944 8.84206 9.35098 9.0001 9.7488 9.0001C10.1466 9.0001 10.5282 8.84206 10.8095 8.56075C11.0908 8.27945 11.2488 7.89791 11.2488 7.50008C11.2488 7.10225 11.0908 6.72072 10.8095 6.43941C10.5282 6.1581 10.1466 6.00007 9.7488 6.00007C9.35098 6.00007 8.96944 6.1581 8.68813 6.43941C8.40683 6.72072 8.24879 7.10225 8.24879 7.50008ZM5.24875 10.5001H6.74877V12.0001C6.74877 12.2968 6.6608 12.5868 6.49597 12.8335C6.33115 13.0802 6.09688 13.2724 5.82279 13.386C5.54869 13.4995 5.24709 13.5292 4.95612 13.4713C4.66514 13.4134 4.39786 13.2706 4.18808 13.0608C3.9783 12.851 3.83544 12.5837 3.77756 12.2928C3.71968 12.0018 3.74939 11.7002 3.86292 11.4261C3.97645 11.152 4.16871 10.9177 4.41539 10.7529C4.66207 10.5881 4.95208 10.5001 5.24875 10.5001Z" fill="black"/>
</svg>
