<svg width="15" height="15" viewBox="0 0 15 15" fill="none" xmlns="http://www.w3.org/2000/svg">
<path d="M6.33662 5.16346H4.01367C2.8418 4.85862 0.190723 4.93796 0.190723 7.33685C0.190723 8.21127 0.630176 8.82559 1.21611 9.10951C0.480762 9.77788 0.132129 10.0932 0.132129 10.5395C0.132129 10.8592 0.263086 11.1539 0.65625 11.3186C0.238184 11.7083 0 11.9914 0 12.5232C0 13.4563 0.821777 14 2.97744 14C5.0502 14 6.25254 13.2322 6.25254 11.8734C6.25254 10.1687 4.92949 10.2315 1.81025 10.0426L2.20371 9.41638C3.00264 9.63665 5.68125 9.70698 5.68125 7.4435C5.68125 6.90008 5.45478 6.52201 5.2418 6.25001L6.33779 6.16748L6.33662 5.16346ZM4.47861 12.1931C4.47861 13.1247 1.40566 13.1259 1.40566 12.2637C1.40566 12.0271 1.56006 11.8278 1.71533 11.6377C3.99199 11.7917 4.47861 11.7357 4.47861 12.1931ZM2.99004 8.28217C1.44316 8.28217 1.51172 6.21427 3.0252 6.21427C4.47656 6.21427 4.51406 8.28217 2.99004 8.28217ZM6.89531 11.203V10.2702C7.679 10.1638 7.69336 10.212 7.69336 9.9505V6.47755C7.69336 6.23054 7.6333 6.26309 6.89531 6.00504L7.02627 5.04838H9.49219V9.95108C9.49219 10.1403 9.50391 10.1638 9.68291 10.1876L10.2902 10.2702V11.203H6.89531ZM8.43193 4.10336C7.75312 4.10336 7.35996 3.71308 7.35996 3.03947C7.35996 2.36586 7.75312 2 8.43193 2C9.12275 2 9.51592 2.36674 9.51592 3.03947C9.51592 3.71221 9.12275 4.10336 8.43193 4.10336ZM15 10.745C14.4876 10.9929 13.7373 11.2175 13.0582 11.2175C11.6408 11.2175 11.105 10.6508 11.105 9.31525V6.22008C11.105 6.06258 11.1357 6.1021 10.176 6.1021V5.05042C11.2242 4.93215 11.6408 4.4111 11.7718 3.12462H12.9035C12.9035 5.03763 12.8643 4.92081 12.999 4.92081H14.6777V6.1021H12.9035V8.92527C12.9035 9.12636 12.7594 10.4192 14.678 9.70524L15 10.745Z" fill="black"/>
</svg>
