<svg width="15" height="15" viewBox="0 0 15 15" fill="none" xmlns="http://www.w3.org/2000/svg">
<path fill-rule="evenodd" clip-rule="evenodd" d="M14.1314 2.67974C14.138 3.12699 14.082 3.68772 14.0327 4.09667C14.017 4.23176 13.9924 4.36567 13.959 4.4975C14.5897 5.66538 14.8682 7.07052 14.8682 8.60534C14.8682 10.4238 13.9936 11.9218 12.6312 12.9431C11.2813 13.9547 9.45989 14.5 7.49991 14.5C5.53994 14.5 3.71849 13.9547 2.36861 12.9431C1.00621 11.9218 0.131592 10.4238 0.131592 8.60534C0.131592 7.07052 0.409377 5.66538 1.04158 4.4975C1.00817 4.36567 0.983551 4.23176 0.967896 4.09667C0.917055 3.68772 0.861056 3.12699 0.868424 2.67974C0.875792 2.17648 0.942107 1.67322 1.01505 1.17365C1.04895 0.942286 1.102 0.724921 1.35326 0.58787C1.60968 0.447872 1.87936 0.49945 2.14535 0.575344C3.04282 0.829551 3.88428 1.18691 4.67564 1.61428C5.51047 1.36449 6.45214 1.23702 7.49991 1.23702C8.54769 1.23702 9.48936 1.36449 10.3235 1.61501C11.1259 1.17631 11.9745 0.82787 12.8537 0.576081C13.1197 0.500187 13.3902 0.447872 13.6458 0.58787C13.8964 0.724921 13.9501 0.942286 13.9848 1.17365C14.057 1.67322 14.124 2.17648 14.1314 2.67974ZM13.3946 8.60534C13.3946 7.36231 13.1087 5.65801 11.5525 5.65801C10.851 5.65801 10.1871 5.84222 9.52399 6.02643C8.86158 6.21064 8.19991 6.39485 7.49991 6.39485C6.79992 6.39485 6.13825 6.21064 5.47584 6.02643C4.81269 5.84222 4.14954 5.65801 3.44734 5.65801C1.89557 5.65801 1.60526 7.36746 1.60526 8.60534C1.60526 9.90511 2.21462 10.986 3.25281 11.7641C4.30206 12.5518 5.79783 13.0263 7.49991 13.0263C9.202 13.0263 10.697 12.5511 11.747 11.7641C12.7852 10.9853 13.3946 9.90511 13.3946 8.60534ZM6.02625 8.97376C6.02625 9.99059 5.5311 10.8158 4.921 10.8158C4.3109 10.8158 3.81575 9.99059 3.81575 8.97376C3.81575 7.95693 4.3109 7.13168 4.921 7.13168C5.5311 7.13168 6.02625 7.95693 6.02625 8.97376ZM10.0788 10.8158C10.6889 10.8158 11.1841 9.99059 11.1841 8.97376C11.1841 7.95693 10.6889 7.13168 10.0788 7.13168C9.46873 7.13168 8.97358 7.95693 8.97358 8.97376C8.97358 9.99059 9.46873 10.8158 10.0788 10.8158Z" fill="black"/>
</svg>
