<svg width="30" height="30" viewBox="0 0 30 30" fill="none" xmlns="http://www.w3.org/2000/svg">
<path d="M18.622 29.9972C15.1717 29.8936 12.3297 29.1972 9.61041 27.9656C8.74492 27.5742 7.83851 27.275 6.95548 26.9412C5.78591 26.498 4.76253 25.8189 4.23623 24.6966C3.03157 22.124 1.76843 19.5571 0.832774 16.881C-0.038557 14.3889 0.499446 11.8911 2.06667 9.76169C3.28303 8.10993 4.01986 6.33731 4.55201 4.38052C5.20697 1.98058 7.01396 0.651109 9.47006 0.133136C10.5987 -0.10283 11.6689 -0.0280116 12.7449 0.380612C13.7448 0.760459 14.7799 0.823767 15.8267 0.541759C17.7682 0.0180304 19.5401 0.559025 21.2769 1.38203C22.0897 1.76188 22.9201 2.16474 23.7915 2.35467C26.6628 2.97624 28.1364 4.83519 28.5282 7.54016C28.7212 8.88114 28.6101 10.2797 28.5107 11.6437C28.423 12.835 28.5516 13.963 28.9376 15.0853C29.9376 17.9975 29.7855 20.8463 28.4171 23.6261C27.5809 25.3297 26.2125 26.4807 24.5517 27.3613C23.388 27.9771 22.2301 28.6102 21.1014 29.2893C20.1892 29.8361 19.2126 30.026 18.622 29.9972ZM18.5927 28.9267C19.4933 28.9382 20.1775 28.6562 21.0956 27.9598C21.7155 27.4937 22.4523 27.1714 23.1365 26.7915C23.9435 26.3484 24.8909 26.0491 25.5458 25.4448C28.3294 22.8664 28.961 19.5629 28.0253 16.104C27.423 13.8709 27.2417 11.73 27.5048 9.47393C27.844 6.52723 26.2066 4.31146 23.3353 3.52874C22.3412 3.25824 21.388 2.79782 20.4523 2.35467C19.2535 1.79065 18.0196 1.30145 16.698 1.61224C14.9787 2.01511 13.3413 1.88849 11.6922 1.34174C11.1542 1.16333 10.5461 1.00218 9.99636 1.06549C7.78587 1.31872 6.23619 2.60214 5.68065 4.63951C5.07832 6.85528 4.06664 8.7833 2.8152 10.6883C1.51697 12.6681 1.17195 14.9242 2.09591 17.1975C3.00818 19.4478 4.00231 21.6693 4.98475 23.8909C5.47012 24.9959 6.32391 25.7325 7.47594 26.1527C8.56364 26.5498 9.66304 26.9239 10.7215 27.3901C13.0548 28.4087 15.5284 28.7541 18.5927 28.9267Z" fill="black"/>
<path d="M22.8702 11.7242C22.8643 12.4263 22.3205 12.9903 21.6772 12.9788C21.0106 12.9673 20.455 12.386 20.4726 11.7242C20.4901 10.999 21.0047 10.4235 21.6304 10.435C22.3322 10.4407 22.8819 11.0105 22.8702 11.7242Z" fill="black"/>
<path d="M9.82185 12.6566C9.81601 13.3587 9.27216 13.9228 8.62889 13.9112C7.96224 13.8997 7.40669 13.3185 7.42423 12.6566C7.44178 11.9314 7.95639 11.3559 8.58211 11.3674C9.278 11.3732 9.8277 11.9429 9.82185 12.6566Z" fill="black"/>
<path fill-rule="evenodd" clip-rule="evenodd" d="M11.1622 19.5709C11.1189 19.2346 11.3607 18.9274 11.7024 18.8847C12.927 18.7319 14.1587 18.6209 15.3769 18.5111L15.3797 18.5108C16.6024 18.4006 17.8116 18.2916 19.0084 18.1422C19.2046 18.1177 19.4569 18.1199 19.6471 18.1215C19.716 18.122 19.7768 18.1225 19.8239 18.1217C20.0715 18.1172 20.1721 18.0879 20.2119 18.0642C20.4156 17.9428 20.6359 17.9166 20.7249 17.906C20.7317 17.9052 20.7377 17.9045 20.7428 17.9038C20.7839 17.8986 20.8073 17.8946 20.8188 17.8926C20.9027 17.845 21.0011 17.8007 21.0896 17.7664C21.1787 17.7318 21.3151 17.6848 21.4496 17.668C21.7913 17.6253 22.1035 17.8633 22.1468 18.1996C22.1896 18.5319 21.9541 18.8357 21.6189 18.8841C21.6168 18.8847 21.6136 18.8855 21.6093 18.8868C21.5936 18.8914 21.5719 18.8987 21.5467 18.9085C21.5217 18.9182 21.4973 18.9287 21.4764 18.9385C21.4661 18.9434 21.4575 18.9477 21.4508 18.9511C21.4476 18.9528 21.445 18.9542 21.4432 18.9552C21.4413 18.9563 21.4404 18.9568 21.4404 18.9568C21.2323 19.0808 21.0128 19.1077 20.9183 19.1193C20.9126 19.12 20.9074 19.1206 20.9026 19.1212C20.8632 19.1263 20.8395 19.1301 20.8268 19.1322C20.4878 19.3221 20.1057 19.3444 19.8468 19.349C19.7151 19.3514 19.6106 19.3501 19.5211 19.349C19.381 19.3473 19.2778 19.346 19.1654 19.36C17.946 19.5122 16.7178 19.6229 15.5014 19.7326L15.4934 19.7333C14.2707 19.8435 13.0597 19.9527 11.8594 20.1025C11.5177 20.1452 11.2056 19.9072 11.1622 19.5709Z" fill="black"/>
</svg>
