<svg width="26" height="26" viewBox="0 0 26 26" fill="none" xmlns="http://www.w3.org/2000/svg">
<path d="M5.90929 4.34956C5.90929 5.63824 4.85108 6.68292 3.54571 6.68292C2.24034 6.68292 1.18213 5.63824 1.18213 4.34956C1.18213 3.06089 2.24034 2.0162 3.54571 2.0162C4.85108 2.0162 5.90929 3.06089 5.90929 4.34956Z" fill="white"/>
<path d="M22.4544 6.68292C23.7597 6.68292 24.818 5.63824 24.818 4.34956C24.818 3.06089 23.7597 2.0162 22.4544 2.0162C21.149 2.0162 20.0908 3.06089 20.0908 4.34956C20.0908 5.63824 21.149 6.68292 22.4544 6.68292Z" fill="white"/>
<path opacity="0.5" d="M9.74262 7.68292C8.2782 7.68292 7.09105 8.8549 7.09105 10.3006C7.09105 11.0134 7.38547 11.6953 7.90632 12.189L8.44057 12.6953C9.39792 13.6026 10.5637 14.1689 11.7812 14.3944C11.5801 16.7393 10.5709 18.5466 9.0817 19.5548C7.43569 20.6691 4.93321 20.9874 1.65477 19.5749C1.05657 19.3172 0.360003 19.587 0.0989458 20.1776C-0.162109 20.7682 0.111204 21.4558 0.709409 21.7135C4.52171 23.3559 7.92819 23.165 10.4184 21.4791C11.513 20.7381 12.3772 19.7439 13 18.5753C13.6228 19.7439 14.4871 20.7381 15.5816 21.4791C18.0718 23.165 21.4783 23.3559 25.2906 21.7135C25.8888 21.4558 26.1621 20.7682 25.9011 20.1776C25.64 19.587 24.9434 19.3172 24.3452 19.5749C21.0668 20.9874 18.5643 20.6691 16.9183 19.5548C15.4291 18.5466 14.4199 16.7393 14.2188 14.3944C15.4363 14.1689 16.6021 13.6026 17.5594 12.6953L18.0937 12.189C18.6145 11.6953 18.909 11.0134 18.909 10.3006C18.909 8.8549 17.7218 7.68292 16.2574 7.68292H9.74262Z" fill="#F0F0F0"/>
</svg>
