<svg width="15" height="15" viewBox="0 0 15 15" fill="none" xmlns="http://www.w3.org/2000/svg">
<path d="M13.3929 0H1.60714C0.719866 0 0 0.719866 0 1.60714V13.3929C0 14.2801 0.719866 15 1.60714 15H13.3929C14.2801 15 15 14.2801 15 13.3929V1.60714C15 0.719866 14.2801 0 13.3929 0ZM8.16295 11.6987C8.16295 13.1585 7.3058 13.8248 6.05692 13.8248C4.92857 13.8248 4.27567 13.2422 3.94085 12.5357L5.08929 11.8426C5.31027 12.2344 5.51116 12.5658 5.99665 12.5658C6.45871 12.5658 6.75335 12.385 6.75335 11.6786V6.88728H8.16295V11.6987ZM11.4978 13.8248C10.1886 13.8248 9.34152 13.202 8.92969 12.385L10.0781 11.7221C10.3795 12.2143 10.7746 12.5792 11.4676 12.5792C12.0502 12.5792 12.4252 12.2879 12.4252 11.8828C12.4252 11.4007 12.0435 11.2299 11.3973 10.9453L11.0458 10.7946C10.0279 10.3627 9.35491 9.81696 9.35491 8.66853C9.35491 7.61049 10.1618 6.80692 11.4174 6.80692C12.3147 6.80692 12.9576 7.1183 13.4196 7.93527L12.3214 8.63839C12.0804 8.20647 11.8192 8.03571 11.4141 8.03571C11.0022 8.03571 10.7411 8.29688 10.7411 8.63839C10.7411 9.06027 11.0022 9.23103 11.6083 9.49554L11.9598 9.6462C13.1585 10.1585 13.8315 10.6842 13.8315 11.8627C13.8315 13.1283 12.8337 13.8248 11.4978 13.8248Z" fill="black"/>
</svg>
