<svg width="20" height="20" viewBox="0 0 20 20" fill="none" xmlns="http://www.w3.org/2000/svg">
<path d="M11.2812 9.85641C11.2812 12.9987 8.75578 15.546 5.6407 15.546C2.52561 15.546 0 12.9981 0 9.85641C0 6.71472 2.52542 4.16666 5.6407 4.16666C8.75598 4.16666 11.2812 6.71414 11.2812 9.85641Z" fill="white"/>
<path d="M17.4688 9.85643C17.4688 12.8142 16.2061 15.2129 14.6485 15.2129C13.0908 15.2129 11.8281 12.8142 11.8281 9.85643C11.8281 6.89867 13.0906 4.49997 14.6483 4.49997C16.2059 4.49997 17.4686 6.8979 17.4686 9.85643" fill="white"/>
<path d="M19.9998 9.8564C19.9998 12.5058 19.5557 14.6549 19.0078 14.6549C18.4599 14.6549 18.0161 12.5064 18.0161 9.8564C18.0161 7.2064 18.4601 5.05786 19.0078 5.05786C19.5555 5.05786 19.9998 7.2062 19.9998 9.8564Z" fill="white"/>
</svg>
