<svg width="15" height="15" viewBox="0 0 15 15" fill="none" xmlns="http://www.w3.org/2000/svg">
<path d="M1.92207 4.97673C1.57574 5.72711 1.40258 6.59293 1.40258 7.45875C1.40258 9.91191 2.81675 11.9899 4.86586 13L1.92207 4.97673ZM11.677 7.17014C11.677 6.39091 11.4172 5.87141 11.1863 5.46736C10.8689 4.97673 10.5803 4.54382 10.5803 4.02433C10.5803 3.47598 11.0132 2.92762 11.5904 2.92762C11.6193 2.92762 11.6481 2.92762 11.677 2.95649C10.5803 1.94636 9.13724 1.34029 7.5499 1.34029C5.38535 1.34029 3.50941 2.43699 2.4127 4.11091C2.55701 4.11091 2.67245 4.11091 2.78789 4.11091C3.45169 4.11091 4.43295 4.02433 4.43295 4.02433C4.77928 3.99547 4.80814 4.4861 4.49067 4.54382C4.49067 4.54382 4.14434 4.57268 3.76915 4.60154L6.02029 11.2395L7.34788 7.199L6.39547 4.60154C6.07801 4.57268 5.76054 4.54382 5.76054 4.54382C5.41421 4.51496 5.47193 3.99547 5.7894 4.02433C5.7894 4.02433 6.79952 4.11091 7.4056 4.11091C8.04053 4.11091 9.05066 4.02433 9.05066 4.02433C9.36812 3.99547 9.42585 4.4861 9.07952 4.54382C9.07952 4.54382 8.76205 4.57268 8.38686 4.60154L10.6091 11.1818L11.2152 9.13267C11.475 8.29571 11.677 7.68964 11.677 7.17014ZM7.63648 8.0071L5.7894 13.3752C6.36661 13.5195 6.94383 13.6061 7.5499 13.6061C8.24256 13.6061 8.93521 13.4906 9.57015 13.2597C9.57015 13.2309 9.54129 13.202 9.54129 13.1732L7.63648 8.0071ZM12.918 4.51496C12.9468 4.71699 12.9757 4.91901 12.9757 5.1499C12.9757 5.78483 12.8603 6.47749 12.4851 7.34331L10.6091 12.7691C12.4562 11.7013 13.6684 9.73874 13.6684 7.45875C13.6684 6.39091 13.4086 5.40964 12.918 4.51496ZM14.7073 7.45875C14.7073 3.5337 11.475 0.301303 7.5499 0.301303C3.59599 0.301303 0.392455 3.5337 0.392455 7.45875C0.392455 11.4127 3.59599 14.6162 7.5499 14.6162C11.475 14.6162 14.7073 11.4127 14.7073 7.45875ZM14.361 7.45875C14.361 11.2395 11.3018 14.2987 7.5499 14.2987C3.76915 14.2987 0.709922 11.2395 0.709922 7.45875C0.709922 3.70686 3.76915 0.647631 7.5499 0.647631C11.3018 0.647631 14.361 3.70686 14.361 7.45875Z" fill="#333333"/>
</svg>
